<svg width="1440" height="980" viewBox="0 0 1440 980" fill="none" xmlns="http://www.w3.org/2000/svg">
  <defs>
    <linearGradient id="bg" x1="160" y1="80" x2="1280" y2="920" gradientUnits="userSpaceOnUse">
      <stop stop-color="#F7FBFF"/>
      <stop offset="1" stop-color="#E8F4FF"/>
    </linearGradient>
    <linearGradient id="card" x1="260" y1="180" x2="1180" y2="820" gradientUnits="userSpaceOnUse">
      <stop stop-color="#FFFFFF" stop-opacity="0.96"/>
      <stop offset="1" stop-color="#F8FCFF" stop-opacity="0.9"/>
    </linearGradient>
    <linearGradient id="cta" x1="1030" y1="120" x2="1250" y2="180" gradientUnits="userSpaceOnUse">
      <stop stop-color="#0077B6"/>
      <stop offset="1" stop-color="#00A6D6"/>
    </linearGradient>
    <filter id="shadow" x="170" y="70" width="1100" height="820" filterUnits="userSpaceOnUse" color-interpolation-filters="sRGB">
      <feDropShadow dx="0" dy="24" stdDeviation="28" flood-color="#005082" flood-opacity="0.12"/>
    </filter>
  </defs>

  <rect width="1440" height="980" fill="url(#bg)"/>
  <circle cx="180" cy="120" r="220" fill="#A7DBFF" fill-opacity="0.25"/>
  <circle cx="1270" cy="110" r="160" fill="#BEEAFF" fill-opacity="0.26"/>

  <g filter="url(#shadow)">
    <rect x="180" y="86" width="1080" height="760" rx="34" fill="url(#card)"/>
  </g>

  <text x="230" y="152" fill="#0F172A" font-size="54" font-family="Segoe UI, Arial, sans-serif" font-weight="800">Vachan Analytics Dashboard</text>
  <text x="230" y="190" fill="#5B6B80" font-size="22" font-family="Segoe UI, Arial, sans-serif">Public claims intelligence with live 60-second refresh, verdict analytics, and CSV export.</text>

  <rect x="987" y="114" width="120" height="44" rx="22" fill="#E7F4FF" stroke="#C7E4F7"/>
  <text x="1012" y="142" fill="#0077B6" font-size="19" font-family="Segoe UI, Arial, sans-serif" font-weight="700">Live data</text>

  <rect x="1122" y="114" width="112" height="44" rx="22" fill="url(#cta)"/>
  <text x="1146" y="142" fill="white" font-size="18" font-family="Segoe UI, Arial, sans-serif" font-weight="700">Export CSV</text>

  <rect x="228" y="238" width="310" height="156" rx="28" fill="white" fill-opacity="0.88" stroke="#E2EEF8"/>
  <text x="258" y="278" fill="#5B6B80" font-size="20" font-family="Segoe UI, Arial, sans-serif">Total claims verified</text>
  <text x="258" y="336" fill="#0F172A" font-size="62" font-family="Segoe UI, Arial, sans-serif" font-weight="800">12,482</text>
  <text x="258" y="370" fill="#5B6B80" font-size="18" font-family="Segoe UI, Arial, sans-serif">Persistent record of every fact-check.</text>

  <rect x="565" y="238" width="310" height="156" rx="28" fill="white" fill-opacity="0.88" stroke="#E2EEF8"/>
  <text x="595" y="278" fill="#5B6B80" font-size="20" font-family="Segoe UI, Arial, sans-serif">Last 24 hours</text>
  <text x="595" y="336" fill="#0F172A" font-size="62" font-family="Segoe UI, Arial, sans-serif" font-weight="800">387</text>
  <text x="595" y="370" fill="#5B6B80" font-size="18" font-family="Segoe UI, Arial, sans-serif">Refreshed automatically every minute.</text>

  <rect x="902" y="238" width="310" height="156" rx="28" fill="white" fill-opacity="0.88" stroke="#E2EEF8"/>
  <text x="932" y="278" fill="#5B6B80" font-size="20" font-family="Segoe UI, Arial, sans-serif">Public API usage</text>
  <text x="932" y="336" fill="#0F172A" font-size="62" font-family="Segoe UI, Arial, sans-serif" font-weight="800">10/min</text>
  <text x="932" y="370" fill="#5B6B80" font-size="18" font-family="Segoe UI, Arial, sans-serif">Rate limit enforced per IP.</text>

  <rect x="228" y="420" width="640" height="372" rx="28" fill="white" fill-opacity="0.9" stroke="#E2EEF8"/>
  <text x="258" y="463" fill="#0F172A" font-size="28" font-family="Segoe UI, Arial, sans-serif" font-weight="750">Verdict breakdown</text>
  <text x="258" y="492" fill="#5B6B80" font-size="18" font-family="Segoe UI, Arial, sans-serif">True, false, misleading, and unverifiable outcomes.</text>

  <circle cx="426" cy="613" r="112" fill="none" stroke="#16A34A" stroke-width="48" stroke-dasharray="188 516" stroke-linecap="round" transform="rotate(-90 426 613)"/>
  <circle cx="426" cy="613" r="112" fill="none" stroke="#DC2626" stroke-width="48" stroke-dasharray="176 528" stroke-dashoffset="-198" stroke-linecap="round" transform="rotate(-90 426 613)"/>
  <circle cx="426" cy="613" r="112" fill="none" stroke="#F59E0B" stroke-width="48" stroke-dasharray="116 588" stroke-dashoffset="-384" stroke-linecap="round" transform="rotate(-90 426 613)"/>
  <circle cx="426" cy="613" r="112" fill="none" stroke="#64748B" stroke-width="48" stroke-dasharray="86 618" stroke-dashoffset="-510" stroke-linecap="round" transform="rotate(-90 426 613)"/>
  <circle cx="426" cy="613" r="69" fill="#FFFFFF"/>
  <text x="392" y="605" fill="#0F172A" font-size="36" font-family="Segoe UI, Arial, sans-serif" font-weight="800">100%</text>
  <text x="384" y="634" fill="#5B6B80" font-size="17" font-family="Segoe UI, Arial, sans-serif">of claims</text>

  <circle cx="612" cy="548" r="8" fill="#16A34A"/>
  <text x="630" y="555" fill="#0F172A" font-size="22" font-family="Segoe UI, Arial, sans-serif">True</text>
  <text x="782" y="555" fill="#5B6B80" font-size="22" font-family="Segoe UI, Arial, sans-serif">29%</text>

  <circle cx="612" cy="600" r="8" fill="#DC2626"/>
  <text x="630" y="607" fill="#0F172A" font-size="22" font-family="Segoe UI, Arial, sans-serif">False</text>
  <text x="782" y="607" fill="#5B6B80" font-size="22" font-family="Segoe UI, Arial, sans-serif">31%</text>

  <circle cx="612" cy="652" r="8" fill="#F59E0B"/>
  <text x="630" y="659" fill="#0F172A" font-size="22" font-family="Segoe UI, Arial, sans-serif">Misleading</text>
  <text x="782" y="659" fill="#5B6B80" font-size="22" font-family="Segoe UI, Arial, sans-serif">22%</text>

  <circle cx="612" cy="704" r="8" fill="#64748B"/>
  <text x="630" y="711" fill="#0F172A" font-size="22" font-family="Segoe UI, Arial, sans-serif">Unverifiable</text>
  <text x="782" y="711" fill="#5B6B80" font-size="22" font-family="Segoe UI, Arial, sans-serif">18%</text>

  <rect x="890" y="420" width="322" height="178" rx="28" fill="white" fill-opacity="0.9" stroke="#E2EEF8"/>
  <text x="920" y="463" fill="#0F172A" font-size="28" font-family="Segoe UI, Arial, sans-serif" font-weight="750">Top languages</text>
  <text x="920" y="492" fill="#5B6B80" font-size="18" font-family="Segoe UI, Arial, sans-serif">Five most detected languages.</text>

  <text x="920" y="536" fill="#0F172A" font-size="21" font-family="Segoe UI, Arial, sans-serif">1. English</text>
  <text x="1125" y="536" fill="#5B6B80" font-size="21" font-family="Segoe UI, Arial, sans-serif">6,194</text>
  <rect x="920" y="548" width="212" height="10" rx="5" fill="#DDF1FF"/>
  <rect x="920" y="548" width="174" height="10" rx="5" fill="#0077B6"/>

  <text x="920" y="590" fill="#0F172A" font-size="21" font-family="Segoe UI, Arial, sans-serif">2. Hindi</text>
  <text x="1125" y="590" fill="#5B6B80" font-size="21" font-family="Segoe UI, Arial, sans-serif">2,208</text>
  <rect x="920" y="602" width="212" height="10" rx="5" fill="#DDF1FF"/>
  <rect x="920" y="602" width="128" height="10" rx="5" fill="#30AADD"/>

  <text x="920" y="644" fill="#0F172A" font-size="21" font-family="Segoe UI, Arial, sans-serif">3. Marathi</text>
  <text x="1125" y="644" fill="#5B6B80" font-size="21" font-family="Segoe UI, Arial, sans-serif">1,406</text>
  <rect x="920" y="656" width="212" height="10" rx="5" fill="#DDF1FF"/>
  <rect x="920" y="656" width="96" height="10" rx="5" fill="#6EC8E8"/>

  <rect x="890" y="614" width="322" height="178" rx="28" fill="white" fill-opacity="0.9" stroke="#E2EEF8"/>
  <text x="920" y="657" fill="#0F172A" font-size="28" font-family="Segoe UI, Arial, sans-serif" font-weight="750">Claims per day</text>
  <text x="920" y="686" fill="#5B6B80" font-size="18" font-family="Segoe UI, Arial, sans-serif">Last 30 days trend line.</text>

  <line x1="930" y1="748" x2="1176" y2="748" stroke="#D7E7F2" stroke-width="2"/>
  <line x1="930" y1="710" x2="1176" y2="710" stroke="#EEF5FA" stroke-width="2"/>
  <line x1="930" y1="672" x2="1176" y2="672" stroke="#EEF5FA" stroke-width="2"/>
  <polyline points="940,736 976,722 1012,731 1048,694 1084,706 1120,664 1156,676" fill="none" stroke="#0077B6" stroke-width="5" stroke-linecap="round" stroke-linejoin="round"/>
  <circle cx="940" cy="736" r="5" fill="#0077B6"/>
  <circle cx="976" cy="722" r="5" fill="#0077B6"/>
  <circle cx="1012" cy="731" r="5" fill="#0077B6"/>
  <circle cx="1048" cy="694" r="5" fill="#0077B6"/>
  <circle cx="1084" cy="706" r="5" fill="#0077B6"/>
  <circle cx="1120" cy="664" r="5" fill="#0077B6"/>
  <circle cx="1156" cy="676" r="5" fill="#0077B6"/>
  <text x="930" y="778" fill="#5B6B80" font-size="16" font-family="Segoe UI, Arial, sans-serif">Apr 19</text>
  <text x="1120" y="778" fill="#5B6B80" font-size="16" font-family="Segoe UI, Arial, sans-serif">May 18</text>
</svg>
